<svg xmlns="http://www.w3.org/2000/svg" width="250.062" height="56.93" viewBox="0 0 250.062 56.93">
  <g id="Group_321" data-name="Group 321" transform="translate(0 0)">
    <g id="Group_312" data-name="Group 312" transform="translate(0 0)">
      <path id="Path_412" data-name="Path 412" d="M59.762,23.933V4.89h6.57a5.712,5.712,0,0,1,2.578.579,4.452,4.452,0,0,1,1.843,1.679,4.925,4.925,0,0,1,.68,2.639,4.631,4.631,0,0,1-.279,1.6,4.1,4.1,0,0,1-.761,1.319,2.4,2.4,0,0,1-1.1.741,3.312,3.312,0,0,1,1.455.769,4.535,4.535,0,0,1,.973,1.285,6.012,6.012,0,0,1,.537,1.537,7.784,7.784,0,0,1,.163,1.551,5.35,5.35,0,0,1-.714,2.782A5.146,5.146,0,0,1,69.8,23.253a5.248,5.248,0,0,1-2.639.68Zm2.285-11.344h4.067a3.243,3.243,0,0,0,2.143-.741,2.553,2.553,0,0,0,.89-2.075,2.6,2.6,0,0,0-.89-2.155A3.322,3.322,0,0,0,66.114,6.9H62.047Zm0,9.331h4.91a3.147,3.147,0,0,0,1.708-.482A3.552,3.552,0,0,0,69.9,20.111a3.894,3.894,0,0,0,.462-1.9,3.612,3.612,0,0,0-.462-1.775,3.854,3.854,0,0,0-1.231-1.354,3,3,0,0,0-1.708-.517h-4.91Z" transform="translate(-5.569 -0.456)" fill="#f2f2f2"/>
      <path id="Path_413" data-name="Path 413" d="M84.121,24.288a7,7,0,0,1-3.965-1.115,7.328,7.328,0,0,1-2.584-3,9.533,9.533,0,0,1-.9-4.182V4.891h2.285v11.1a7.373,7.373,0,0,0,.6,3.006,5.187,5.187,0,0,0,1.755,2.19,5.258,5.258,0,0,0,5.639-.007,5.16,5.16,0,0,0,1.735-2.19,7.483,7.483,0,0,0,.591-3V4.891h2.285v11.1a9.871,9.871,0,0,1-.517,3.231,8.1,8.1,0,0,1-1.489,2.645,6.835,6.835,0,0,1-2.347,1.782,7.233,7.233,0,0,1-3.088.639" transform="translate(-7.145 -0.456)" fill="#f2f2f2"/>
      <path id="Path_414" data-name="Path 414" d="M96.5,23.933V4.89h2.285V21.648h8.529v2.285Z" transform="translate(-8.993 -0.456)" fill="#f2f2f2"/>
      <path id="Path_415" data-name="Path 415" d="M111.722,23.933V4.89h2.285V21.648h8.529v2.285Z" transform="translate(-10.412 -0.456)" fill="#f2f2f2"/>
      <path id="Path_416" data-name="Path 416" d="M134.146,23.933V4.89h6.692a5.2,5.2,0,0,1,2.754.748,5.547,5.547,0,0,1,1.96,2.02,5.615,5.615,0,0,1,.727,2.836,5.689,5.689,0,0,1-.544,2.5,5.351,5.351,0,0,1-1.489,1.884,5.416,5.416,0,0,1-2.143,1.04l4.625,8.012h-2.639l-4.543-7.821h-3.115v7.821Zm2.285-10.106h4.176a3.294,3.294,0,0,0,1.7-.455,3.4,3.4,0,0,0,1.231-1.239,3.439,3.439,0,0,0,.455-1.761,3.473,3.473,0,0,0-.455-1.776,3.4,3.4,0,0,0-1.231-1.237,3.3,3.3,0,0,0-1.7-.456h-4.176Z" transform="translate(-12.501 -0.456)" fill="#f2f2f2"/>
      <path id="Path_417" data-name="Path 417" d="M151.486,23.933V4.89H163.17V7.175h-9.4v5.414h7.7v2.285h-7.7v6.774h9.4v2.285Z" transform="translate(-14.117 -0.456)" fill="#f2f2f2"/>
      <path id="Path_418" data-name="Path 418" d="M174.348,24.257a9.2,9.2,0,0,1-2.965-.483,7.629,7.629,0,0,1-2.5-1.38,4.97,4.97,0,0,1-1.517-2.136l2.136-.8a2.879,2.879,0,0,0,1.014,1.326,5.578,5.578,0,0,0,1.747.878,6.971,6.971,0,0,0,2.081.313,6.354,6.354,0,0,0,2.279-.4,4.334,4.334,0,0,0,1.707-1.123,2.433,2.433,0,0,0,.653-1.687,2.121,2.121,0,0,0-.68-1.626,4.905,4.905,0,0,0-1.741-1.006,13.848,13.848,0,0,0-2.217-.579,17.8,17.8,0,0,1-3.529-.931,5.894,5.894,0,0,1-2.462-1.694,4.344,4.344,0,0,1-.9-2.87,4.6,4.6,0,0,1,.959-2.9,6.278,6.278,0,0,1,2.536-1.918,8.5,8.5,0,0,1,3.4-.68,9.293,9.293,0,0,1,2.932.469A7.713,7.713,0,0,1,179.789,6.4a5.069,5.069,0,0,1,1.564,2.19l-2.163.789a2.873,2.873,0,0,0-1.013-1.34,5.522,5.522,0,0,0-1.741-.871,7.1,7.1,0,0,0-2.088-.306,5.977,5.977,0,0,0-2.258.394,4.4,4.4,0,0,0-1.7,1.129,2.416,2.416,0,0,0-.653,1.673,2.368,2.368,0,0,0,.606,1.748,3.739,3.739,0,0,0,1.652.9,23.576,23.576,0,0,0,2.353.53,15.131,15.131,0,0,1,3.428.986,6.792,6.792,0,0,1,2.537,1.789,4.067,4.067,0,0,1,.958,2.748,4.594,4.594,0,0,1-.958,2.9,6.281,6.281,0,0,1-2.537,1.918,8.567,8.567,0,0,1-3.428.68" transform="translate(-15.598 -0.425)" fill="#f2f2f2"/>
      <path id="Path_419" data-name="Path 419" d="M186.255,23.933V4.89h11.684V7.175h-9.4v5.414h7.7v2.285h-7.7v6.774h9.4v2.285Z" transform="translate(-17.358 -0.456)" fill="#f2f2f2"/>
      <path id="Path_420" data-name="Path 420" d="M208.493,4.89h2.761l6.923,19.043h-2.421l-1.415-3.89h-8.937l-1.4,3.89H201.57Zm-2.244,12.868h7.25l-3.632-9.943Z" transform="translate(-18.785 -0.456)" fill="#f2f2f2"/>
      <path id="Path_421" data-name="Path 421" d="M222.615,23.933V4.89h6.692a5.2,5.2,0,0,1,2.754.748,5.547,5.547,0,0,1,1.96,2.02,5.615,5.615,0,0,1,.727,2.836A5.689,5.689,0,0,1,234.2,13a5.351,5.351,0,0,1-1.489,1.884,5.416,5.416,0,0,1-2.143,1.04l4.625,8.012h-2.639l-4.543-7.821H224.9v7.821ZM224.9,13.827h4.176a3.3,3.3,0,0,0,1.7-.455,3.4,3.4,0,0,0,1.231-1.239,3.439,3.439,0,0,0,.455-1.761,3.473,3.473,0,0,0-.455-1.776,3.405,3.405,0,0,0-1.231-1.237,3.3,3.3,0,0,0-1.7-.456H224.9Z" transform="translate(-20.746 -0.456)" fill="#f2f2f2"/>
      <path id="Path_422" data-name="Path 422" d="M247.948,24.251a8.715,8.715,0,0,1-3.632-.769,9.418,9.418,0,0,1-2.985-2.122,9.937,9.937,0,0,1-2.014-3.148,10.479,10.479,0,0,1,0-7.672,9.941,9.941,0,0,1,2.014-3.149,9.447,9.447,0,0,1,2.985-2.122,8.971,8.971,0,0,1,7.889.307,9.67,9.67,0,0,1,3.224,2.856L253.4,9.52A6.957,6.957,0,0,0,251,7.527a6.618,6.618,0,0,0-3.054-.741,6.481,6.481,0,0,0-2.768.6,7.124,7.124,0,0,0-2.251,1.646,7.738,7.738,0,0,0-1.51,2.421,8.118,8.118,0,0,0,.007,5.863,7.756,7.756,0,0,0,1.523,2.421,7.1,7.1,0,0,0,2.259,1.639,6.649,6.649,0,0,0,5.821-.163,7.308,7.308,0,0,0,2.374-1.979l2.027,1.1a9.59,9.59,0,0,1-3.224,2.849,8.7,8.7,0,0,1-4.257,1.068" transform="translate(-22.235 -0.419)" fill="#f2f2f2"/>
      <path id="Path_423" data-name="Path 423" d="M271.9,4.89h2.285V23.933H271.9V14.874h-9.426v9.059h-2.285V4.89h2.285v7.7H271.9Z" transform="translate(-24.248 -0.456)" fill="#f2f2f2"/>
      <path id="Path_424" data-name="Path 424" d="M68.52,56.251a8.715,8.715,0,0,1-3.632-.769A9.418,9.418,0,0,1,61.9,53.36a9.937,9.937,0,0,1-2.014-3.148,10.479,10.479,0,0,1,0-7.672A9.941,9.941,0,0,1,61.9,39.391a9.447,9.447,0,0,1,2.985-2.122,8.971,8.971,0,0,1,7.889.306A9.67,9.67,0,0,1,76,40.432L73.975,41.52a6.957,6.957,0,0,0-2.4-1.993,6.618,6.618,0,0,0-3.054-.741,6.482,6.482,0,0,0-2.768.6A7.124,7.124,0,0,0,63.5,41.031a7.739,7.739,0,0,0-1.51,2.421A8.118,8.118,0,0,0,62,49.314a7.756,7.756,0,0,0,1.523,2.421,7.1,7.1,0,0,0,2.259,1.639,6.649,6.649,0,0,0,5.821-.163,7.307,7.307,0,0,0,2.374-1.979L76,52.334a9.591,9.591,0,0,1-3.224,2.849,8.7,8.7,0,0,1-4.257,1.068" transform="translate(-5.513 -3.402)" fill="#f2f2f2"/>
      <path id="Path_425" data-name="Path 425" d="M93.492,56.251a8.715,8.715,0,0,1-3.632-.769,9.471,9.471,0,0,1-2.992-2.128,10.1,10.1,0,0,1-2.027-3.148,10.35,10.35,0,0,1,0-7.659A10.1,10.1,0,0,1,86.868,39.4a9.474,9.474,0,0,1,2.992-2.129,9,9,0,0,1,7.277,0A9.474,9.474,0,0,1,100.13,39.4a10.179,10.179,0,0,1,0,13.956,9.471,9.471,0,0,1-2.992,2.128,8.747,8.747,0,0,1-3.645.769m0-2.285a6.479,6.479,0,0,0,2.768-.6,7.154,7.154,0,0,0,2.257-1.652,7.877,7.877,0,0,0,1.524-2.422,7.887,7.887,0,0,0-1.537-8.269,7.253,7.253,0,0,0-2.258-1.64,6.669,6.669,0,0,0-5.522,0,7.157,7.157,0,0,0-2.258,1.652,7.885,7.885,0,0,0-1.523,2.422,8.006,8.006,0,0,0,.006,5.855,7.878,7.878,0,0,0,1.531,2.421,7.1,7.1,0,0,0,2.258,1.639,6.506,6.506,0,0,0,2.754.592" transform="translate(-7.838 -3.402)" fill="#f2f2f2"/>
      <path id="Path_426" data-name="Path 426" d="M111.782,55.933V36.89h2.476L123.765,51.8V36.89h2.285V55.933h-2.462l-9.521-14.908V55.933Z" transform="translate(-10.417 -3.438)" fill="#f2f2f2"/>
      <path id="Path_427" data-name="Path 427" d="M141.814,56.257a9.2,9.2,0,0,1-2.965-.483,7.629,7.629,0,0,1-2.5-1.38,4.97,4.97,0,0,1-1.517-2.136l2.136-.8a2.879,2.879,0,0,0,1.014,1.326,5.578,5.578,0,0,0,1.747.878,6.971,6.971,0,0,0,2.081.313,6.354,6.354,0,0,0,2.279-.4,4.334,4.334,0,0,0,1.707-1.123,2.433,2.433,0,0,0,.653-1.687,2.121,2.121,0,0,0-.68-1.626,4.906,4.906,0,0,0-1.741-1.006,13.848,13.848,0,0,0-2.217-.579,17.8,17.8,0,0,1-3.529-.931,5.894,5.894,0,0,1-2.462-1.694,4.344,4.344,0,0,1-.9-2.87,4.6,4.6,0,0,1,.959-2.9,6.278,6.278,0,0,1,2.536-1.918,8.5,8.5,0,0,1,3.4-.68,9.293,9.293,0,0,1,2.932.469,7.713,7.713,0,0,1,2.509,1.367,5.07,5.07,0,0,1,1.564,2.19l-2.163.789a2.873,2.873,0,0,0-1.013-1.34,5.522,5.522,0,0,0-1.741-.871,7.1,7.1,0,0,0-2.088-.306,5.977,5.977,0,0,0-2.258.394,4.4,4.4,0,0,0-1.7,1.129,2.416,2.416,0,0,0-.653,1.673,2.368,2.368,0,0,0,.606,1.748,3.739,3.739,0,0,0,1.652.9,23.578,23.578,0,0,0,2.353.53,15.131,15.131,0,0,1,3.428.986,6.792,6.792,0,0,1,2.537,1.789,4.067,4.067,0,0,1,.959,2.748,4.594,4.594,0,0,1-.959,2.9,6.281,6.281,0,0,1-2.537,1.918,8.567,8.567,0,0,1-3.428.68" transform="translate(-12.566 -3.407)" fill="#f2f2f2"/>
      <path id="Path_428" data-name="Path 428" d="M165.03,56.288a7,7,0,0,1-3.965-1.115,7.328,7.328,0,0,1-2.584-3,9.533,9.533,0,0,1-.9-4.182v-11.1h2.285v11.1a7.373,7.373,0,0,0,.6,3.006,5.187,5.187,0,0,0,1.755,2.19,5.258,5.258,0,0,0,5.639-.007,5.16,5.16,0,0,0,1.735-2.19,7.484,7.484,0,0,0,.591-3v-11.1h2.285v11.1a9.871,9.871,0,0,1-.517,3.231,8.1,8.1,0,0,1-1.489,2.645,6.836,6.836,0,0,1-2.347,1.782,7.233,7.233,0,0,1-3.088.639" transform="translate(-14.685 -3.438)" fill="#f2f2f2"/>
      <path id="Path_429" data-name="Path 429" d="M181.427,55.933V36.89h2.285V53.648h8.529v2.285Z" transform="translate(-16.908 -3.438)" fill="#f2f2f2"/>
      <path id="Path_430" data-name="Path 430" d="M212.771,36.89v2.285h-6.339V55.933h-2.285V39.175h-6.325V36.89Z" transform="translate(-18.436 -3.438)" fill="#f2f2f2"/>
      <rect id="Rectangle_85" data-name="Rectangle 85" width="2.285" height="19.043" transform="translate(201.109 33.453)" fill="#f2f2f2"/>
      <path id="Path_431" data-name="Path 431" d="M232.366,55.933V36.89h2.476L244.35,51.8V36.89h2.285V55.933h-2.462l-9.521-14.908V55.933Z" transform="translate(-21.655 -3.438)" fill="#f2f2f2"/>
      <path id="Path_432" data-name="Path 432" d="M264.493,56.253a8.861,8.861,0,0,1-3.68-.769,9.179,9.179,0,0,1-2.979-2.136,10.176,10.176,0,0,1-2.713-6.984,9.954,9.954,0,0,1,.755-3.9,9.833,9.833,0,0,1,2.067-3.128,9.587,9.587,0,0,1,3.006-2.075,8.927,8.927,0,0,1,7.679.266,9.633,9.633,0,0,1,3.346,2.911l-2.04,1.1a7.176,7.176,0,0,0-2.483-2.04,6.588,6.588,0,0,0-2.944-.707,6.51,6.51,0,0,0-2.728.585A7.179,7.179,0,0,0,259.507,41a7.745,7.745,0,0,0-1.543,2.421,7.845,7.845,0,0,0-.558,2.979,7.8,7.8,0,0,0,2.087,5.352,7.054,7.054,0,0,0,2.265,1.626,6.618,6.618,0,0,0,2.761.585,6.291,6.291,0,0,0,2.223-.394,6.944,6.944,0,0,0,1.945-1.115,7.186,7.186,0,0,0,1.523-1.7,7.8,7.8,0,0,0,.959-2.149h-4.693v-2.04h7.359a9.72,9.72,0,0,1-.755,3.754,10.024,10.024,0,0,1-2.027,3.088A9.483,9.483,0,0,1,268.09,55.5a8.674,8.674,0,0,1-3.6.755" transform="translate(-23.775 -3.403)" fill="#f2f2f2"/>
      <path id="Path_433" data-name="Path 433" d="M26.892,14.762a3.139,3.139,0,0,1,.463,1.681h0a2.216,2.216,0,0,1-.645,1.811.8.8,0,1,0,1.153,1.121,3.794,3.794,0,0,0,1-2.911c-.143-2.8-3.588-2.953-3.588-2.953l1.211.873a2.383,2.383,0,0,1,.4.376" transform="translate(-2.356 -1.259)" fill="#daff00"/>
      <path id="Path_434" data-name="Path 434" d="M22.141,37.251V26.884h4.315a1.151,1.151,0,0,0,1-.582l1.35-2.38.005,0L29,23.552a1.15,1.15,0,0,0-.55-1.561l-6.207-2.84-4.674-2.189a1.036,1.036,0,0,1-.136-.074A2.37,2.37,0,0,1,16.288,14.7a3.753,3.753,0,0,1,1.023-2.18.956.956,0,0,1,.212-.168l.948-.583s-3.616.149-3.766,2.953a3.605,3.605,0,0,0,1.825,3.493l9.655,4.5a.761.761,0,0,1,.329,1.085l-.551.909a.485.485,0,0,1-.414.234H21.17a1.122,1.122,0,0,0-.235.024.989.989,0,0,0-.19-.106l-3.828-1.647.613-.475a1.007,1.007,0,0,1,1.075-.1l1.048.535a1.007,1.007,0,1,0,.894-1.8l-2.174-1.044a1,1,0,0,0-1.044.1l-7.274,5.5a1,1,0,0,0-.4.8v9.21a1.009,1.009,0,0,0,.271.687l1.315,1.406a1,1,0,0,1,.271.687v1.231a1.007,1.007,0,0,0,1.577.83l.061-.042a1.007,1.007,0,0,0,.436-.83V38.489a1,1,0,0,0-.248-.66L11.927,36.2a1,1,0,0,1-.247-.662l.006-7.78a1,1,0,0,1,.39-.794l2.772-2.15a1.182,1.182,0,0,0,.194.11L17.93,26.1l2.09.841v9.24a1.148,1.148,0,0,1-.457.918l-8.7,6.568a1.152,1.152,0,0,0-.457.918v1.626a1.15,1.15,0,0,0,2.3,0v-.68a1.15,1.15,0,0,1,.456-.918l8.519-6.44a1.151,1.151,0,0,0,.456-.918" transform="translate(-0.9 -1.097)" fill="#daff00"/>
      <path id="Path_435" data-name="Path 435" d="M27.542,44.725A.83.83,0,0,0,27.1,44.2l-3.692-1.722a.977.977,0,1,0-.805,1.781l2.276,1a.349.349,0,0,1,.083.589L23.6,46.977a.826.826,0,0,0-.3.637v1.135a.827.827,0,0,0,.827.827h.442a.827.827,0,0,0,.827-.827V48.66A.943.943,0,0,1,25.666,48l1.841-1.86a.827.827,0,0,0,.208-.809Z" transform="translate(-2.052 -3.95)" fill="#daff00"/>
      <path id="Path_436" data-name="Path 436" d="M35.764,30.248a2.774,2.774,0,0,0-3.794,3.384,1.579,1.579,0,0,0,.367.609l2.148,2.217.022.044a.676.676,0,0,1-.916.9L27.431,31.3a1.637,1.637,0,0,0-2.759,1.187V40a.989.989,0,0,0,.57.9L29.984,43.1a.989.989,0,0,1,.521.587l1.354,4.1a.99.99,0,0,0,.939.679h.283a.989.989,0,0,0,.925-1.338L32.1,42.078a.992.992,0,0,0-.512-.55l-4.116-1.892a.989.989,0,0,1-.576-.9V34.814a.49.49,0,0,1,.833-.35l3.842,3.766a4.263,4.263,0,0,0,1.161.81,2.693,2.693,0,0,0,3.645-3.451v0l-2.3-2.607c-.347-.764.339-1.279.971-.766l.917.754a3.188,3.188,0,0,0,1.611.414l1.451-.115Z" transform="translate(-2.299 -2.795)" fill="#daff00"/>
      <path id="Path_437" data-name="Path 437" d="M21.2,56.93A21.225,21.225,0,0,1,0,35.73V21.2a21.2,21.2,0,1,1,42.4,0V35.73a21.3,21.3,0,0,1-7.256,15.956A20.936,20.936,0,0,1,21.2,56.93m0-55.388A19.681,19.681,0,0,0,1.542,21.2V35.73a19.659,19.659,0,0,0,39.317,0V21.2A19.681,19.681,0,0,0,21.2,1.542" fill="#daff00"/>
    </g>
  </g>
</svg>
