<svg xmlns="http://www.w3.org/2000/svg" width="52.727" height="70.794" viewBox="0 0 52.727 70.794">
  <g id="Gruppe_323" data-name="Gruppe 323" transform="translate(-1445 780.999)">
    <path id="Pfad_438" data-name="Pfad 438" d="M27.285,15.066a3.9,3.9,0,0,1,.576,2.091h0a2.755,2.755,0,0,1-.8,2.252A1,1,0,1,0,28.492,20.8a4.718,4.718,0,0,0,1.246-3.62c-.178-3.486-4.462-3.672-4.462-3.672L26.783,14.6a2.963,2.963,0,0,1,.5.468" transform="translate(1448.226 -779.275)" fill="#daff00"/>
    <path id="Pfad_439" data-name="Pfad 439" d="M25.181,43.457V30.566h5.366a1.431,1.431,0,0,0,1.244-.724l1.679-2.96.007,0,.231-.462a1.43,1.43,0,0,0-.684-1.941L25.305,20.95l-5.812-2.722a1.288,1.288,0,0,1-.169-.092A2.947,2.947,0,0,1,17.9,15.411,4.667,4.667,0,0,1,19.176,12.7a1.188,1.188,0,0,1,.264-.209l1.178-.725s-4.5.185-4.683,3.672a4.483,4.483,0,0,0,2.27,4.344l12.006,5.6a.946.946,0,0,1,.409,1.35l-.686,1.13a.6.6,0,0,1-.515.291H23.974a1.4,1.4,0,0,0-.292.03,1.23,1.23,0,0,0-.236-.132L18.686,26l.762-.591a1.252,1.252,0,0,1,1.336-.126l1.3.665A1.252,1.252,0,1,0,23.2,23.705l-2.7-1.3a1.25,1.25,0,0,0-1.3.13l-9.046,6.845a1.25,1.25,0,0,0-.5,1V41.832a1.254,1.254,0,0,0,.337.855l1.635,1.749a1.25,1.25,0,0,1,.337.855v1.531a1.252,1.252,0,0,0,1.961,1.032L14,47.8a1.252,1.252,0,0,0,.542-1.032V45a1.249,1.249,0,0,0-.308-.821l-1.757-2.02a1.25,1.25,0,0,1-.307-.823l.008-9.674a1.25,1.25,0,0,1,.485-.988L16.113,28a1.471,1.471,0,0,0,.241.136l3.59,1.452,2.6,1.045V42.122a1.428,1.428,0,0,1-.568,1.141L11.161,51.431a1.433,1.433,0,0,0-.568,1.141v2.022a1.43,1.43,0,0,0,2.861,0v-.846a1.43,1.43,0,0,1,.567-1.141L24.614,44.6a1.432,1.432,0,0,0,.567-1.141" transform="translate(1446.233 -779.498)" fill="#daff00"/>
    <path id="Pfad_440" data-name="Pfad 440" d="M28.888,45.294a1.032,1.032,0,0,0-.554-.65L23.744,42.5a1.215,1.215,0,1,0-1,2.215l2.83,1.24a.435.435,0,0,1,.1.732l-1.693,1.4a1.027,1.027,0,0,0-.372.792V50.3a1.028,1.028,0,0,0,1.028,1.028h.549A1.029,1.029,0,0,0,26.217,50.3v-.111a1.172,1.172,0,0,1,.338-.824l2.289-2.313a1.029,1.029,0,0,0,.258-1.006Z" transform="translate(1447.81 -775.589)" fill="#daff00"/>
    <path id="Pfad_441" data-name="Pfad 441" d="M38.465,30.312a3.45,3.45,0,0,0-4.718,4.208,1.964,1.964,0,0,0,.457.758l2.671,2.757.027.054a.841.841,0,0,1-1.139,1.122l-7.66-7.6a2.036,2.036,0,0,0-3.431,1.476v9.341a1.23,1.23,0,0,0,.709,1.114l5.9,2.749a1.23,1.23,0,0,1,.648.73l1.684,5.1a1.23,1.23,0,0,0,1.168.845h.352a1.229,1.229,0,0,0,1.15-1.663l-2.371-6.287a1.234,1.234,0,0,0-.637-.683l-5.118-2.352a1.23,1.23,0,0,1-.716-1.117v-4.88a.61.61,0,0,1,1.036-.435l4.778,4.683a5.3,5.3,0,0,0,1.443,1.007,3.349,3.349,0,0,0,4.533-4.292v0l-2.86-3.242c-.432-.949.422-1.59,1.208-.953l1.14.937a3.965,3.965,0,0,0,2,.515l1.8-.143Z" transform="translate(1448.149 -777.172)" fill="#daff00"/>
    <path id="Pfad_442" data-name="Pfad 442" d="M26.364,70.794A26.394,26.394,0,0,1,0,44.431V26.364a26.364,26.364,0,1,1,52.727,0V44.431A26.393,26.393,0,0,1,26.364,70.794m0-68.876A24.474,24.474,0,0,0,1.918,26.364V44.431a24.446,24.446,0,0,0,48.892,0V26.364A24.474,24.474,0,0,0,26.364,1.918" transform="translate(1445 -780.999)" fill="#daff00"/>
  </g>
</svg>
